<svg width="14" height="23" viewBox="0 0 14 23" fill="none" xmlns="http://www.w3.org/2000/svg">
<path d="M1.83265 1.56067C2.41844 0.974885 3.36818 0.974885 3.95397 1.56067L12.4393 10.046C13.025 10.6317 13.025 11.5815 12.4393 12.1673C11.8535 12.7531 10.9037 12.7531 10.3179 12.1673L1.83265 3.68199C1.24686 3.09621 1.24686 2.14646 1.83265 1.56067Z" fill="url(#paint0_linear_62_771)"/>
<path d="M1.83263 21.1673C1.24685 20.5815 1.24685 19.6317 1.83263 19.0459L10.3179 10.5607C10.9037 9.97488 11.8534 9.97488 12.4392 10.5607C13.025 11.1465 13.025 12.0962 12.4392 12.682L3.95395 21.1673C3.36817 21.7531 2.41842 21.7531 1.83263 21.1673Z" fill="url(#paint1_linear_62_771)"/>
<defs>
<linearGradient id="paint0_linear_62_771" x1="3.23993" y1="0.846633" x2="11.3918" y2="12.5724" gradientUnits="userSpaceOnUse">
<stop stop-color="#FFDB47"/>
<stop offset="1" stop-color="#FDCC06"/>
</linearGradient>
<linearGradient id="paint1_linear_62_771" x1="1.11859" y1="19.76" x2="12.8444" y2="11.6081" gradientUnits="userSpaceOnUse">
<stop stop-color="#FFDB47"/>
<stop offset="1" stop-color="#FDCC06"/>
</linearGradient>
</defs>
</svg>
