<svg width="40" height="47" viewBox="0 0 40 47" fill="none" xmlns="http://www.w3.org/2000/svg">
<path d="M40 40.8754C40 41.8744 39.1709 42.6841 38.1481 42.6841H36.2963V44.4927C36.2963 45.4917 35.4672 46.3014 34.4444 46.3014C33.4217 46.3014 32.5926 45.4917 32.5926 44.4927V42.6841H30.7407C29.718 42.6841 28.8889 41.8744 28.8889 40.8754C28.8889 39.8765 29.718 39.0668 30.7407 39.0668H32.5926V37.2582C32.5926 36.2592 33.4217 35.4495 34.4444 35.4495C35.4672 35.4495 36.2963 36.2592 36.2963 37.2582V39.0668H38.1481C39.1709 39.0668 40 39.8765 40 40.8754ZM40 12.6605V30.0236C40 31.0225 39.1709 31.8322 38.1481 31.8322C37.1254 31.8322 36.2963 31.0225 36.2963 30.0236V14.4692H32.5926V19.8951C32.5926 20.894 31.7635 21.7038 30.7407 21.7038C29.718 21.7038 28.8889 20.894 28.8889 19.8951V14.4692H11.1111V19.8951C11.1111 20.894 10.282 21.7038 9.25926 21.7038C8.23648 21.7038 7.40741 20.894 7.40741 19.8951V14.4692H3.7037V42.6841H23.3333C24.3561 42.6841 25.1852 43.4938 25.1852 44.4927C25.1852 45.4917 24.3561 46.3014 23.3333 46.3014H1.85185C0.829074 46.3014 0 45.4917 0 44.4927V12.6605C0 11.6616 0.829074 10.8519 1.85185 10.8519H7.495C8.23065 4.74978 13.5577 0 20 0C26.4423 0 31.7694 4.74978 32.505 10.8519H38.1481C39.1709 10.8519 40 11.6616 40 12.6605ZM28.7647 10.8519C28.0573 6.75123 24.3966 3.6173 20 3.6173C15.6034 3.6173 11.9427 6.75123 11.2353 10.8519H28.7647Z" fill="url(#paint0_linear_69_219)"/>
<defs>
<linearGradient id="paint0_linear_69_219" x1="1.30719" y1="2.62792e-05" x2="39.9632" y2="1.20089" gradientUnits="userSpaceOnUse">
<stop stop-color="#FFDB47"/>
<stop offset="1" stop-color="#FDCC06"/>
</linearGradient>
</defs>
</svg>
