<svg width="62" height="62" viewBox="0 0 62 62" fill="none" xmlns="http://www.w3.org/2000/svg">
<g clip-path="url(#clip0_118_366)">
<path d="M49.3064 24.453H49.2193C48.0302 24.4464 46.8813 24.8834 45.9967 25.6783C45.2807 23.6968 43.4611 22.2724 41.3299 22.2724C40.0236 22.2816 38.7759 22.8178 37.871 23.7604C37.0388 22.0758 35.3695 20.933 33.4501 20.933H33.3574C32.3287 20.9173 31.325 21.2518 30.5112 21.8813V9.87145C30.5112 6.96919 28.2516 4.60828 25.5031 4.60828C22.7577 4.60828 20.5099 6.96767 20.5084 9.86789L20.4854 33.6961L19.1369 32.0583C17.9544 30.586 16.2138 29.6719 14.3305 29.5339C12.486 29.4076 10.6715 30.0493 9.31691 31.3081L8.14358 32.2803C7.7652 32.594 7.65724 33.1287 7.88386 33.5647L19.2917 55.4928C21.3777 59.5001 25.3463 62.0001 29.649 62.0001H42.5052V61.9889C49.0237 61.9889 54.3088 56.3326 54.3154 49.3873C54.318 46.2798 54.3062 43.9637 54.3083 42.0866C54.3149 37.0643 54.3098 35.2111 54.2971 29.678C54.2905 26.7824 52.0472 24.453 49.3064 24.453ZM52.2071 42.0795C52.205 43.9571 52.202 46.2824 52.1989 49.3898C52.1933 55.1867 47.8173 59.9137 42.4441 59.9137H29.6495C26.1275 59.9137 22.8677 57.8435 21.1429 54.5293L10.1231 33.3538L10.6669 32.9001C10.6807 32.8889 10.6939 32.8756 10.7072 32.8639C11.6427 31.9834 12.9016 31.5312 14.1834 31.6152C15.4937 31.7156 16.7027 32.3562 17.5221 33.3834L20.7146 37.268C20.9937 37.6087 21.4571 37.7365 21.8716 37.5883C22.2862 37.4401 22.5632 37.047 22.5632 36.607L22.582 9.86891C22.5831 8.11808 23.9071 6.69369 25.5042 6.69369C27.1012 6.69369 28.4253 8.11961 28.4253 9.87145V25.993C28.4253 26.049 28.4227 26.1056 28.4227 26.1626C28.4227 26.1871 28.4253 26.212 28.4253 26.2359V33.1287C28.4253 33.7047 28.8923 34.1717 29.4682 34.1717C30.0442 34.1717 30.5112 33.7047 30.5112 33.1287V26.0282C30.5112 24.339 31.8016 23.019 33.3574 23.019H33.4501C35.0482 23.019 36.3778 24.4118 36.3778 26.1636V32.4708C36.3778 33.0468 36.8448 33.5137 37.4208 33.5137C37.9968 33.5137 38.4638 33.0468 38.4638 32.4708V27.5223C38.4638 25.77 39.7298 24.3446 41.3365 24.3446C42.934 24.3446 44.2 25.7695 44.2 27.5223V32.1907C44.2 32.7667 44.667 33.2336 45.243 33.2336C45.819 33.2336 46.2859 32.7667 46.2859 32.1907V29.6627C46.2859 27.9104 47.6212 26.5389 49.2193 26.5389H49.3064C50.9003 26.5389 52.1994 27.9338 52.2035 29.6806C52.2163 35.2096 52.2137 37.0607 52.2071 42.0795Z" fill="white"/>
<path d="M17.1951 10.3216C17.771 10.3216 18.238 9.85464 18.238 9.27867C18.2548 5.29882 21.4861 2.08184 25.4654 2.08184C29.4453 2.08184 32.676 5.29882 32.6928 9.27867C32.6928 9.85464 33.1598 10.3216 33.7358 10.3216C34.3117 10.3216 34.7787 9.85464 34.7787 9.27867C34.7594 4.14841 30.5957 0 25.4654 0C20.3357 0 16.1715 4.14841 16.1521 9.27867C16.1521 9.85464 16.6191 10.3216 17.1951 10.3216Z" fill="white"/>
</g>
<defs>
<clipPath id="clip0_118_366">
<rect width="62" height="62" fill="white"/>
</clipPath>
</defs>
</svg>
