<svg aria-hidden="true" xmlns="http://www.w3.org/2000/svg" xmlns:xlink="http://www.w3.org/1999/xlink"><symbol viewBox="0 0 14 23" id="arrow" xmlns="http://www.w3.org/2000/svg">
<path d="M1.83265 1.56067C2.41844 0.974885 3.36818 0.974885 3.95397 1.56067L12.4393 10.046C13.025 10.6317 13.025 11.5815 12.4393 12.1673C11.8535 12.7531 10.9037 12.7531 10.3179 12.1673L1.83265 3.68199C1.24686 3.09621 1.24686 2.14646 1.83265 1.56067Z"/>
<path d="M1.83263 21.1673C1.24685 20.5815 1.24685 19.6317 1.83263 19.0459L10.3179 10.5607C10.9037 9.97488 11.8534 9.97488 12.4392 10.5607C13.025 11.1465 13.025 12.0962 12.4392 12.682L3.95395 21.1673C3.36817 21.7531 2.41842 21.7531 1.83263 21.1673Z"/>
<defs>
<linearGradient id="apaint0_linear_62_771" x1="3.23993" y1="0.846633" x2="11.3918" y2="12.5724" gradientUnits="userSpaceOnUse">
<stop stop-color="#FFDB47"/>
<stop offset="1" stop-color="#FDCC06"/>
</linearGradient>
<linearGradient id="apaint1_linear_62_771" x1="1.11859" y1="19.76" x2="12.8444" y2="11.6081" gradientUnits="userSpaceOnUse">
<stop stop-color="#FFDB47"/>
<stop offset="1" stop-color="#FDCC06"/>
</linearGradient>
</defs>
</symbol><symbol viewBox="0 0 40 47" id="cart" xmlns="http://www.w3.org/2000/svg">
<path d="M40 40.8754C40 41.8744 39.1709 42.6841 38.1481 42.6841H36.2963V44.4927C36.2963 45.4917 35.4672 46.3014 34.4444 46.3014C33.4217 46.3014 32.5926 45.4917 32.5926 44.4927V42.6841H30.7407C29.718 42.6841 28.8889 41.8744 28.8889 40.8754C28.8889 39.8765 29.718 39.0668 30.7407 39.0668H32.5926V37.2582C32.5926 36.2592 33.4217 35.4495 34.4444 35.4495C35.4672 35.4495 36.2963 36.2592 36.2963 37.2582V39.0668H38.1481C39.1709 39.0668 40 39.8765 40 40.8754ZM40 12.6605V30.0236C40 31.0225 39.1709 31.8322 38.1481 31.8322C37.1254 31.8322 36.2963 31.0225 36.2963 30.0236V14.4692H32.5926V19.8951C32.5926 20.894 31.7635 21.7038 30.7407 21.7038C29.718 21.7038 28.8889 20.894 28.8889 19.8951V14.4692H11.1111V19.8951C11.1111 20.894 10.282 21.7038 9.25926 21.7038C8.23648 21.7038 7.40741 20.894 7.40741 19.8951V14.4692H3.7037V42.6841H23.3333C24.3561 42.6841 25.1852 43.4938 25.1852 44.4927C25.1852 45.4917 24.3561 46.3014 23.3333 46.3014H1.85185C0.829074 46.3014 0 45.4917 0 44.4927V12.6605C0 11.6616 0.829074 10.8519 1.85185 10.8519H7.495C8.23065 4.74978 13.5577 0 20 0C26.4423 0 31.7694 4.74978 32.505 10.8519H38.1481C39.1709 10.8519 40 11.6616 40 12.6605ZM28.7647 10.8519C28.0573 6.75123 24.3966 3.6173 20 3.6173C15.6034 3.6173 11.9427 6.75123 11.2353 10.8519H28.7647Z"/>
<defs>
<linearGradient id="bpaint0_linear_69_219" x1="1.30719" y1="2.62792e-05" x2="39.9632" y2="1.20089" gradientUnits="userSpaceOnUse">
<stop stop-color="#FFDB47"/>
<stop offset="1" stop-color="#FDCC06"/>
</linearGradient>
</defs>
</symbol><symbol viewBox="0 0 20 16" id="check" xmlns="http://www.w3.org/2000/svg">
<path d="M19.7071 0.94916C19.3166 0.558613 18.6835 0.558613 18.2929 0.94916L6.31228 12.9299L1.70713 8.32475C1.31662 7.9342 0.683496 7.93424 0.29291 8.32475C-0.0976367 8.71525 -0.0976367 9.34838 0.29291 9.73892L5.60518 15.0511C5.99557 15.4416 6.62916 15.4413 7.01939 15.0511L19.7071 2.36338C20.0977 1.97287 20.0976 1.33971 19.7071 0.94916Z"/>
<defs>
<linearGradient id="cpaint0_linear_165_54" x1="0.653595" y1="0.656258" x2="19.954" y2="1.60131" gradientUnits="userSpaceOnUse">
<stop stop-color="#FFDB47"/>
<stop offset="1" stop-color="#FDCC06"/>
</linearGradient>
</defs>
</symbol><symbol viewBox="0 0 30 30" id="clock" xmlns="http://www.w3.org/2000/svg">
<g clip-path="url(#dclip0_62_760)">
<path d="M26.8433 7.89368C26.2219 8.19427 25.9619 8.94196 26.2625 9.56299C27.0837 11.2595 27.5 13.0881 27.5 15C27.5 21.8924 21.8924 27.5 15 27.5C8.1076 27.5 2.5 21.8924 2.5 15C2.5 8.1076 8.1076 2.5 15 2.5C17.8561 2.5 20.5392 3.43262 22.76 5.19684C23.2986 5.62683 24.0863 5.5368 24.5163 4.99634C24.9463 4.45618 24.8563 3.66943 24.3155 3.24005C21.6864 1.15051 18.378 0 15 0C6.72943 0 0 6.72943 0 15C0 23.2706 6.72943 30 15 30C23.2706 30 30 23.2706 30 15C30 12.7081 29.4995 10.5118 28.5126 8.47443C28.2126 7.85187 27.4625 7.59247 26.8433 7.89368Z"/>
<path d="M15 5C14.31 5 13.75 5.56 13.75 6.25V15C13.75 15.69 14.31 16.25 15 16.25H21.25C21.94 16.25 22.5 15.69 22.5 15C22.5 14.31 21.94 13.75 21.25 13.75H16.25V6.25C16.25 5.56 15.69 5 15 5Z"/>
</g>
<defs>
<linearGradient id="dpaint0_linear_62_760" x1="0.980392" y1="1.70271e-05" x2="29.9629" y2="1.0422" gradientUnits="userSpaceOnUse">
<stop stop-color="#FFDB47"/>
<stop offset="1" stop-color="#FDCC06"/>
</linearGradient>
<linearGradient id="dpaint1_linear_62_760" x1="14.0359" y1="5.00001" x2="22.4935" y2="5.23655" gradientUnits="userSpaceOnUse">
<stop stop-color="#FFDB47"/>
<stop offset="1" stop-color="#FDCC06"/>
</linearGradient>
<clipPath id="dclip0_62_760">
<rect width="30" height="30"/>
</clipPath>
</defs>
</symbol><symbol viewBox="0 0 16 30" id="fb" xmlns="http://www.w3.org/2000/svg">
<g clip-path="url(#eclip0_62_681)">
<path d="M13.0813 4.98047H16V0.210938C15.5 0.146484 13.7625 0 11.7437 0C7.53125 0 4.65 2.48438 4.65 7.04883V11.25H0V16.582H4.65V30H10.35V16.582H14.8125L15.5188 11.25H10.35V7.57617C10.3438 6.03516 10.7875 4.98047 13.0813 4.98047Z"/>
</g>
<defs>
<linearGradient id="epaint0_linear_62_681" x1="0.522876" y1="1.70271e-05" x2="15.9945" y2="0.296735" gradientUnits="userSpaceOnUse">
<stop stop-color="#FFDB47"/>
<stop offset="1" stop-color="#FDCC06"/>
</linearGradient>
<clipPath id="eclip0_62_681">
<rect width="16" height="30"/>
</clipPath>
</defs>
</symbol><symbol viewBox="0 0 30 30" id="inst" xmlns="http://www.w3.org/2000/svg">
<g clip-path="url(#fclip0_62_687)">
<path d="M20.625 0H9.375C4.19531 0 0 4.19531 0 9.375V20.625C0 25.8047 4.19531 30 9.375 30H20.625C25.8047 30 30 25.8047 30 20.625V9.375C30 4.19531 25.8047 0 20.625 0ZM27.1875 20.625C27.1875 24.2461 24.2461 27.1875 20.625 27.1875H9.375C5.75391 27.1875 2.8125 24.2461 2.8125 20.625V9.375C2.8125 5.75391 5.75391 2.8125 9.375 2.8125H20.625C24.2461 2.8125 27.1875 5.75391 27.1875 9.375V20.625Z"/>
<path d="M15 7.5C10.8574 7.5 7.5 10.8574 7.5 15C7.5 19.1426 10.8574 22.5 15 22.5C19.1426 22.5 22.5 19.1426 22.5 15C22.5 10.8574 19.1426 7.5 15 7.5ZM15 19.6875C12.416 19.6875 10.3125 17.584 10.3125 15C10.3125 12.416 12.416 10.3125 15 10.3125C17.584 10.3125 19.6875 12.416 19.6875 15C19.6875 17.584 17.584 19.6875 15 19.6875Z"/>
<path d="M23.0625 7.93945C23.6159 7.93945 24.0645 7.49086 24.0645 6.9375C24.0645 6.38414 23.6159 5.93555 23.0625 5.93555C22.5091 5.93555 22.0605 6.38414 22.0605 6.9375C22.0605 7.49086 22.5091 7.93945 23.0625 7.93945Z"/>
</g>
<defs>
<linearGradient id="fpaint0_linear_62_687" x1="0.980392" y1="1.70271e-05" x2="29.9629" y2="1.0422" gradientUnits="userSpaceOnUse">
<stop stop-color="#FFDB47"/>
<stop offset="1" stop-color="#FDCC06"/>
</linearGradient>
<linearGradient id="fpaint1_linear_62_687" x1="7.9902" y1="7.50001" x2="22.4814" y2="8.0211" gradientUnits="userSpaceOnUse">
<stop stop-color="#FFDB47"/>
<stop offset="1" stop-color="#FDCC06"/>
</linearGradient>
<linearGradient id="fpaint2_linear_62_687" x1="22.126" y1="5.93555" x2="24.062" y2="6.00516" gradientUnits="userSpaceOnUse">
<stop stop-color="#FFDB47"/>
<stop offset="1" stop-color="#FDCC06"/>
</linearGradient>
<clipPath id="fclip0_62_687">
<rect width="30" height="30"/>
</clipPath>
</defs>
</symbol><symbol viewBox="0 0 100 76" id="mail" xmlns="http://www.w3.org/2000/svg">
<path d="M90.625 0.5H87.5H12.5H9.375C4.2 0.5 0 4.7 0 9.875V13V63V66.125C0 71.3 4.2 75.5 9.375 75.5H12.5H87.5H90.625C95.8 75.5 100 71.3 100 66.125V63V13V9.875C100 4.7 95.8 0.5 90.625 0.5ZM79.5875 6.75L50 30.1125L20.4125 6.75H79.5875ZM87.5 69.25H12.5V17.0375L50 45.8812L87.5 17.0312V69.25Z"/>
<defs>
<linearGradient id="gpaint0_linear_161_2" x1="3.26797" y1="0.500043" x2="99.7793" y2="5.12733" gradientUnits="userSpaceOnUse">
<stop stop-color="#FFDB47"/>
<stop offset="1" stop-color="#FDCC06"/>
</linearGradient>
</defs>
</symbol><symbol viewBox="0 0 15 20" id="marker" xmlns="http://www.w3.org/2000/svg">
<path d="M7.49798 0C3.36479 0 0 3.25 0 7.24219C0 12.1992 6.70936 19.4766 6.99649 19.7812C7.26341 20.0703 7.73254 20.0703 7.99946 19.7812C8.2866 19.4727 14.996 12.1992 14.996 7.24219C15 3.25 11.6352 0 7.49798 0ZM7.49798 10.8867C5.41925 10.8867 3.72472 9.25 3.72472 7.24219C3.72472 5.23437 5.41925 3.59766 7.49798 3.59766C9.5767 3.59766 11.2712 5.23437 11.2712 7.24219C11.2712 9.25 9.58075 10.8867 7.49798 10.8867Z"/>
<defs>
<linearGradient id="hpaint0_linear_1968_22" x1="0.490064" y1="1.13503e-05" x2="14.9856" y2="0.39088" gradientUnits="userSpaceOnUse">
<stop stop-color="#FFDB47"/>
<stop offset="1" stop-color="#FDCC06"/>
</linearGradient>
</defs>
</symbol><symbol viewBox="0 0 20 20" id="mobile" xmlns="http://www.w3.org/2000/svg">
<path d="M19.4728 14.6804L16.6753 11.8884C15.6764 10.8915 13.9792 11.2887 13.5773 12.5854C13.2769 13.4811 12.2781 13.9795 11.3807 13.7809C9.38303 13.2825 6.68697 10.689 6.18755 8.59789C5.88712 7.70225 6.48798 6.70536 7.38537 6.40552C8.68463 6.00832 9.0826 4.3105 8.08377 3.31362L5.28626 0.52156C4.48642 -0.175481 3.2886 -0.175481 2.5902 0.52156L0.693989 2.41798C-1.20223 4.41175 0.896876 9.69602 5.59059 14.3806C10.2843 19.0652 15.5789 21.2575 17.5765 19.2638L19.4728 17.3713C20.1712 16.573 20.1712 15.3775 19.4728 14.6804Z"/>
<defs>
<linearGradient id="ipaint0_linear_62_669" x1="0.652537" y1="-0.00120935" x2="19.9718" y2="0.693345" gradientUnits="userSpaceOnUse">
<stop stop-color="#FFDB47"/>
<stop offset="1" stop-color="#FDCC06"/>
</linearGradient>
</defs>
</symbol><symbol viewBox="0 0 30 30" id="phone" xmlns="http://www.w3.org/2000/svg">
<path d="M29.4125 23.8544L26.0843 21.6395L23.1254 19.6708C22.557 19.2899 21.7894 19.413 21.3675 19.9579L19.5394 22.3075C19.1468 22.8173 18.4379 22.9637 17.8754 22.6532C16.6332 21.9618 15.1683 21.3114 11.9281 18.0712C8.68786 14.8309 8.03747 13.3661 7.34606 12.1239C7.03552 11.5614 7.182 10.8524 7.69177 10.4598L10.0414 8.63171C10.5804 8.20983 10.7093 7.44225 10.3285 6.8739L8.41833 4.00866L6.14489 0.586786C5.75817 0.000848174 4.97888 -0.169074 4.38122 0.188348L1.75036 1.76452C1.04137 2.18054 0.51989 2.86022 0.291375 3.65124C-0.423469 6.27038 -0.569955 12.0477 8.69372 21.3055C17.9574 30.5633 23.7289 30.4227 26.348 29.702C27.139 29.4735 27.8187 28.952 28.2347 28.243L29.8109 25.618C30.1742 25.0204 29.9984 24.2411 29.4125 23.8544Z"/>
<path d="M17.0684 4.65234C21.9199 4.6582 25.8574 8.58984 25.8633 13.4473C25.8633 13.7344 26.0977 13.9629 26.3789 13.9629C26.666 13.9629 26.8945 13.7285 26.8945 13.4473C26.8887 8.02148 22.4941 3.62695 17.0684 3.62109C16.7812 3.62109 16.5527 3.85547 16.5527 4.13672C16.5527 4.42383 16.7812 4.65234 17.0684 4.65234Z"/>
<path d="M17.0684 7.75781C20.209 7.76367 22.752 10.3066 22.7578 13.4473C22.7578 13.7344 22.9922 13.9629 23.2734 13.9629C23.5605 13.9629 23.7891 13.7285 23.7891 13.4473C23.7832 9.73828 20.7773 6.72656 17.0625 6.7207C16.7754 6.7207 16.5469 6.95508 16.5469 7.23633C16.5469 7.51758 16.7812 7.75781 17.0684 7.75781Z"/>
<path d="M17.0684 10.8633C18.498 10.8633 19.6523 12.0234 19.6523 13.4473C19.6523 13.7344 19.8867 13.9629 20.168 13.9629C20.4551 13.9629 20.6836 13.7285 20.6836 13.4473C20.6836 11.4492 19.0605 9.82617 17.0625 9.82617C16.7754 9.82617 16.5469 10.0605 16.5469 10.3418C16.5527 10.6289 16.7812 10.8633 17.0684 10.8633Z"/>
<defs>
<linearGradient id="jpaint0_linear_62_725" x1="0.97637" y1="0.00209222" x2="29.9626" y2="1.04462" gradientUnits="userSpaceOnUse">
<stop stop-color="#FFDB47"/>
<stop offset="1" stop-color="#FDCC06"/>
</linearGradient>
<linearGradient id="jpaint1_linear_62_725" x1="16.8907" y1="3.6211" x2="26.8817" y2="3.98037" gradientUnits="userSpaceOnUse">
<stop stop-color="#FFDB47"/>
<stop offset="1" stop-color="#FDCC06"/>
</linearGradient>
<linearGradient id="jpaint2_linear_62_725" x1="16.7835" y1="6.72071" x2="23.7801" y2="6.9723" gradientUnits="userSpaceOnUse">
<stop stop-color="#FFDB47"/>
<stop offset="1" stop-color="#FDCC06"/>
</linearGradient>
<linearGradient id="jpaint3_linear_62_725" x1="16.6821" y1="9.82617" x2="20.6785" y2="9.96988" gradientUnits="userSpaceOnUse">
<stop stop-color="#FFDB47"/>
<stop offset="1" stop-color="#FDCC06"/>
</linearGradient>
</defs>
</symbol><symbol viewBox="0 0 62 62" id="tap" xmlns="http://www.w3.org/2000/svg">
<g clip-path="url(#kclip0_118_366)">
<path d="M49.3064 24.453H49.2193C48.0302 24.4464 46.8813 24.8834 45.9967 25.6783C45.2807 23.6968 43.4611 22.2724 41.3299 22.2724C40.0236 22.2816 38.7759 22.8178 37.871 23.7604C37.0388 22.0758 35.3695 20.933 33.4501 20.933H33.3574C32.3287 20.9173 31.325 21.2518 30.5112 21.8813V9.87145C30.5112 6.96919 28.2516 4.60828 25.5031 4.60828C22.7577 4.60828 20.5099 6.96767 20.5084 9.86789L20.4854 33.6961L19.1369 32.0583C17.9544 30.586 16.2138 29.6719 14.3305 29.5339C12.486 29.4076 10.6715 30.0493 9.31691 31.3081L8.14358 32.2803C7.7652 32.594 7.65724 33.1287 7.88386 33.5647L19.2917 55.4928C21.3777 59.5001 25.3463 62.0001 29.649 62.0001H42.5052V61.9889C49.0237 61.9889 54.3088 56.3326 54.3154 49.3873C54.318 46.2798 54.3062 43.9637 54.3083 42.0866C54.3149 37.0643 54.3098 35.2111 54.2971 29.678C54.2905 26.7824 52.0472 24.453 49.3064 24.453ZM52.2071 42.0795C52.205 43.9571 52.202 46.2824 52.1989 49.3898C52.1933 55.1867 47.8173 59.9137 42.4441 59.9137H29.6495C26.1275 59.9137 22.8677 57.8435 21.1429 54.5293L10.1231 33.3538L10.6669 32.9001C10.6807 32.8889 10.6939 32.8756 10.7072 32.8639C11.6427 31.9834 12.9016 31.5312 14.1834 31.6152C15.4937 31.7156 16.7027 32.3562 17.5221 33.3834L20.7146 37.268C20.9937 37.6087 21.4571 37.7365 21.8716 37.5883C22.2862 37.4401 22.5632 37.047 22.5632 36.607L22.582 9.86891C22.5831 8.11808 23.9071 6.69369 25.5042 6.69369C27.1012 6.69369 28.4253 8.11961 28.4253 9.87145V25.993C28.4253 26.049 28.4227 26.1056 28.4227 26.1626C28.4227 26.1871 28.4253 26.212 28.4253 26.2359V33.1287C28.4253 33.7047 28.8923 34.1717 29.4682 34.1717C30.0442 34.1717 30.5112 33.7047 30.5112 33.1287V26.0282C30.5112 24.339 31.8016 23.019 33.3574 23.019H33.4501C35.0482 23.019 36.3778 24.4118 36.3778 26.1636V32.4708C36.3778 33.0468 36.8448 33.5137 37.4208 33.5137C37.9968 33.5137 38.4638 33.0468 38.4638 32.4708V27.5223C38.4638 25.77 39.7298 24.3446 41.3365 24.3446C42.934 24.3446 44.2 25.7695 44.2 27.5223V32.1907C44.2 32.7667 44.667 33.2336 45.243 33.2336C45.819 33.2336 46.2859 32.7667 46.2859 32.1907V29.6627C46.2859 27.9104 47.6212 26.5389 49.2193 26.5389H49.3064C50.9003 26.5389 52.1994 27.9338 52.2035 29.6806C52.2163 35.2096 52.2137 37.0607 52.2071 42.0795Z"/>
<path d="M17.1951 10.3216C17.771 10.3216 18.238 9.85464 18.238 9.27867C18.2548 5.29882 21.4861 2.08184 25.4654 2.08184C29.4453 2.08184 32.676 5.29882 32.6928 9.27867C32.6928 9.85464 33.1598 10.3216 33.7358 10.3216C34.3117 10.3216 34.7787 9.85464 34.7787 9.27867C34.7594 4.14841 30.5957 0 25.4654 0C20.3357 0 16.1715 4.14841 16.1521 9.27867C16.1521 9.85464 16.6191 10.3216 17.1951 10.3216Z"/>
</g>
<defs>
<clipPath id="kclip0_118_366">
<rect width="62" height="62"/>
</clipPath>
</defs>
</symbol></svg>